 <svg version="1.0" xmlns="http://www.w3.org/2000/svg" width="700.000000pt" height="698.000000pt" viewBox="0 0 700.000000 698.000000" preserveAspectRatio="xMidYMid meet">
<metadata>
Created by potrace 1.12, written by Peter Selinger 2001-2015
</metadata>
<g transform="translate(0.000000,698.000000) scale(0.100000,-0.100000)" fill="#000000" stroke="none">
<path d="M3460 5205 c-88 -17 -119 -28 -187 -64 -165 -88 -291 -245 -353 -440
-41 -130 -21 -325 50 -475 32 -67 46 -80 56 -48 3 9 13 33 22 51 9 19 16 37
15 40 -43 112 -53 159 -53 259 0 148 22 218 105 337 79 112 175 182 310 226
55 18 92 22 175 22 121 -1 182 -16 279 -69 84 -46 106 -64 163 -131 85 -100
135 -214 145 -328 7 -87 16 -105 51 -105 42 0 52 17 52 88 0 72 -14 138 -41
199 -10 24 -19 45 -19 49 0 16 -93 146 -142 199 -150 161 -396 236 -628 190z"></path>
<path d="M3485 4849 c-114 -28 -212 -110 -271 -227 -22 -43 -30 -74 -33 -129
-3 -71 -3 -73 24 -83 18 -7 32 -7 46 0 19 11 22 20 34 94 15 93 83 181 173
226 65 33 185 33 255 1 76 -35 145 -115 168 -193 9 -32 4 -39 -56 -71 -23 -14
-51 -42 -70 -71 -26 -43 -30 -59 -30 -120 0 -60 5 -78 27 -113 93 -144 293
-145 384 -2 34 54 43 123 19 149 -10 11 -26 20 -35 20 -21 0 -50 -31 -50 -54
0 -55 -63 -116 -121 -116 -54 0 -83 16 -109 62 -42 74 1 155 94 179 26 6 51
19 56 28 14 28 -5 142 -35 201 -40 78 -117 155 -192 191 -52 25 -80 31 -151
34 -48 3 -105 0 -127 -6z"></path>
<path d="M3455 4556 c-44 -21 -72 -55 -86 -106 -11 -41 -10 -49 10 -88 70
-137 271 -93 271 60 0 42 -27 96 -61 121 -33 24 -96 30 -134 13z"></path>
<path d="M3142 4251 c-46 -30 -72 -77 -72 -134 0 -42 5 -53 38 -88 64 -69 152
-65 216 11 21 25 26 42 26 84 0 48 -4 58 -38 96 -33 37 -44 43 -87 47 -38 3
-58 -1 -83 -16z"></path>
<path d="M3315 3959 c-16 -10 -38 -19 -47 -19 -30 0 -20 -26 15 -38 17 -6 59
-20 91 -31 33 -12 69 -21 80 -21 12 0 37 -4 56 -10 30 -8 38 -17 53 -59 20
-58 73 -125 127 -162 97 -66 260 -60 359 11 94 68 162 239 113 283 -41 37 -92
7 -92 -54 0 -35 -26 -86 -63 -127 -58 -63 -179 -76 -255 -29 -51 33 -90 92
-101 155 -12 62 -38 82 -106 82 -28 0 -78 9 -111 20 -72 24 -81 24 -119 -1z"></path>
<path d="M2870 3963 c-53 -10 -100 -76 -100 -141 0 -70 69 -140 139 -142 39 0
110 39 126 71 8 15 15 53 15 83 0 50 -4 59 -34 89 -18 19 -48 37 -66 41 -34 6
-39 6 -80 -1z"></path>
<path d="M3219 2913 c-1 -5 0 -85 1 -179 1 -95 -2 -174 -7 -177 -5 -3 -28 8
-52 24 -70 46 -166 35 -233 -29 -33 -30 -68 -118 -68 -167 0 -55 37 -140 75
-174 63 -55 174 -64 236 -20 35 24 49 24 49 -1 0 -17 7 -20 50 -20 l50 0 2
360 c0 198 1 366 2 373 1 13 -103 23 -105 10z m-69 -411 c81 -39 93 -161 23
-224 -26 -24 -101 -32 -133 -16 -92 49 -91 203 3 243 42 18 64 18 107 -3z"></path>
<path d="M3707 2914 c-9 -10 -9 -742 1 -747 4 -2 28 -2 55 1 l47 4 -2 372 -3
371 -45 3 c-25 2 -49 0 -53 -4z"></path>
<path d="M1959 2828 c-12 -22 -161 -607 -163 -638 -1 -24 1 -25 49 -21 28 1
53 5 56 7 4 2 10 24 13 49 8 52 20 58 111 53 l60 -3 15 -52 15 -53 42 0 c24 0
46 1 51 3 13 4 6 43 -33 197 -9 36 -32 126 -50 200 -19 74 -43 166 -53 205
l-17 70 -44 0 c-30 0 -46 -5 -52 -17z m75 -285 c9 -43 21 -96 27 -117 9 -34 9
-42 -7 -53 -37 -27 -122 -8 -109 25 3 9 14 60 25 114 28 147 39 152 64 31z"></path>
<path d="M3490 2833 c-55 -21 -67 -78 -24 -112 15 -12 34 -21 44 -21 10 0 29
9 44 21 28 22 35 64 14 92 -15 18 -55 29 -78 20z"></path>
<path d="M5015 2818 c-3 -7 -6 -58 -7 -113 -3 -99 -3 -100 -28 -100 -23 0 -25
-4 -25 -45 0 -42 2 -45 28 -48 l27 -3 0 -118 c0 -127 11 -171 50 -206 31 -28
159 -28 189 -1 20 18 20 18 -2 48 -19 25 -26 28 -57 23 -58 -10 -67 5 -73 127
-7 129 -1 140 72 136 l46 -3 0 45 0 45 -48 -3 c-72 -5 -76 1 -69 123 l5 105
-52 0 c-32 0 -53 -5 -56 -12z"></path>
<path d="M2337 2601 c-1 -3 0 -80 3 -171 5 -147 8 -169 28 -201 31 -50 63 -64
144 -63 58 2 74 6 94 25 21 20 26 21 34 9 5 -8 10 -18 10 -22 0 -5 23 -8 50
-8 l50 0 -2 218 -3 217 -50 0 -50 0 4 -116 c6 -189 -22 -235 -141 -230 -50 2
-62 37 -68 199 l-5 144 -48 3 c-26 1 -48 0 -50 -4z"></path>
<path d="M3465 2601 c-3 -2 -5 -101 -5 -218 l0 -214 51 3 50 3 0 209 c0 114
-2 211 -6 214 -7 7 -84 10 -90 3z"></path>
<path d="M4075 2596 c-25 -6 -57 -28 -85 -56 -109 -108 -87 -268 47 -351 31
-20 50 -23 132 -23 87 0 100 3 139 27 23 15 42 31 42 35 0 5 -13 21 -29 36
-27 26 -30 27 -53 12 -34 -22 -130 -32 -167 -16 -32 13 -61 49 -61 74 0 13 26
16 168 18 l167 3 3 36 c4 51 -37 140 -79 171 -62 45 -141 57 -224 34z m165
-107 c53 -53 40 -64 -79 -67 -126 -3 -136 -1 -120 30 22 46 60 68 116 68 44 0
56 -4 83 -31z"></path>
<path d="M4615 2594 c-88 -32 -150 -129 -143 -224 5 -74 35 -128 93 -169 46
-33 51 -35 140 -35 90 0 94 1 135 34 l42 34 -33 28 c-40 32 -46 33 -71 11 -13
-12 -36 -17 -74 -17 -48 0 -58 4 -86 31 -60 60 -47 169 25 214 36 22 75 21
132 -6 35 -17 35 -17 72 11 l36 27 -29 24 c-34 27 -117 53 -166 52 -18 0 -51
-7 -73 -15z"></path>
<path d="M2500 1806 c-28 -31 -22 -48 30 -81 22 -14 40 -29 40 -35 0 -17 -22
-22 -46 -9 -20 10 -27 10 -37 0 -17 -17 17 -41 60 -41 24 0 37 7 49 25 21 32
13 50 -31 76 -44 26 -48 53 -6 44 36 -8 52 12 26 32 -28 20 -59 16 -85 -11z"></path>
<path d="M2638 1823 c-8 -17 8 -188 17 -188 6 0 11 41 13 98 2 80 0 97 -12 97
-8 0 -16 -3 -18 -7z"></path>
<path d="M2705 1817 c-3 -7 -5 -51 -3 -97 l3 -84 55 0 c49 -1 55 1 55 19 0 16
-7 20 -35 20 l-35 0 -5 74 c-3 47 -10 76 -17 79 -7 2 -15 -3 -18 -11z"></path>
<path d="M2854 1817 c-2 -7 -4 -51 -2 -97 l3 -84 55 0 c49 -1 55 1 55 19 0 17
-7 20 -40 20 -46 0 -55 22 -17 41 30 15 30 27 0 34 -38 10 -28 34 17 40 27 3
40 10 40 20 0 21 -103 27 -111 7z"></path>
<path d="M3004 1817 c-3 -8 -4 -49 -2 -93 2 -62 6 -79 18 -79 11 0 15 11 15
40 0 62 19 62 65 0 32 -42 66 -57 64 -27 -1 6 -2 48 -2 93 -2 71 -4 80 -19 77
-15 -3 -17 -12 -15 -51 5 -63 -13 -62 -62 3 -39 52 -53 60 -62 37z"></path>
<path d="M3192 1813 c2 -9 14 -20 28 -23 24 -6 25 -10 25 -75 0 -63 2 -70 20
-70 18 0 20 5 16 67 -3 65 -2 68 23 78 14 5 26 16 26 25 0 12 -14 15 -71 15
-61 0 -70 -2 -67 -17z"></path>
<path d="M3367 1823 c-8 -13 -12 -171 -4 -179 14 -14 105 -13 117 1 18 22 1
37 -39 33 l-36 -3 -5 74 c-4 67 -18 98 -33 74z"></path>
<path d="M3500 1815 c0 -8 14 -34 30 -57 19 -25 30 -53 30 -73 0 -32 20 -61
33 -48 4 3 7 25 7 47 0 30 9 52 30 80 17 22 30 46 30 53 0 26 -31 12 -51 -22
-12 -19 -25 -35 -29 -35 -4 0 -17 16 -29 35 -21 36 -51 47 -51 20z"></path>
<path d="M3795 1818 c-34 -18 -55 -51 -55 -86 0 -69 91 -118 145 -79 28 21 10
39 -31 31 -26 -5 -40 -2 -54 11 -45 41 -5 102 57 89 39 -8 50 10 21 30 -26 19
-55 20 -83 4z"></path>
<path d="M3937 1824 c-13 -13 -8 -171 6 -181 6 -5 32 -9 57 -8 38 0 45 3 45
20 0 16 -7 20 -35 20 l-35 0 -5 74 c-5 68 -15 92 -33 75z"></path>
<path d="M4076 1821 c-4 -5 -3 -48 0 -94 l7 -85 50 -6 c57 -6 85 7 66 31 -8 9
-22 11 -44 7 -20 -3 -35 -1 -40 6 -9 15 13 40 31 33 8 -3 14 1 14 11 0 9 -12
21 -26 26 -37 15 -24 34 27 40 30 3 44 10 44 20 0 11 -15 16 -62 18 -34 2 -64
-1 -67 -7z"></path>
<path d="M4428 1823 c-2 -5 -1 -48 2 -98 4 -71 8 -90 20 -90 9 0 17 12 20 29
7 42 24 42 50 1 12 -19 25 -35 30 -35 17 0 22 22 10 46 -10 18 -11 30 -2 49
18 40 14 62 -14 84 -26 21 -109 30 -116 14z m97 -63 c0 -18 -6 -26 -23 -28
-13 -2 -25 3 -28 12 -10 26 4 48 28 44 17 -2 23 -10 23 -28z"></path>
<path d="M4307 1814 c-19 -20 -78 -157 -73 -171 6 -14 9 -13 29 6 13 11 36 21
52 21 16 0 39 -10 52 -21 20 -20 23 -20 29 -5 3 9 -5 39 -19 69 -14 28 -30 64
-36 80 -10 26 -21 33 -34 21z m26 -88 c7 -16 -1 -26 -20 -26 -7 0 -13 9 -13
20 0 23 25 27 33 6z"></path>
</g>
</svg>