 <svg version="1.0" xmlns="http://www.w3.org/2000/svg" width="700.000000pt" height="697.000000pt" viewBox="0 0 700.000000 697.000000" preserveAspectRatio="xMidYMid meet">
<metadata>
Created by potrace 1.12, written by Peter Selinger 2001-2015
</metadata>
<g transform="translate(0.000000,697.000000) scale(0.100000,-0.100000)" fill="#000000" stroke="none">
<path d="M3460 6870 c-69 -11 -136 -26 -150 -34 -14 -7 -37 -16 -51 -20 -48
-11 -223 -98 -304 -151 -83 -54 -175 -139 -244 -225 -96 -119 -131 -167 -131
-176 0 -4 -6 -15 -14 -23 -16 -18 -96 -178 -115 -231 -48 -127 -63 -216 -68
-382 -4 -145 -2 -183 17 -275 26 -134 53 -215 102 -317 21 -43 38 -84 38 -90
0 -19 57 -69 69 -62 6 4 11 24 11 45 0 28 10 53 39 93 21 31 35 60 31 65 -14
15 -70 164 -70 187 0 13 -8 38 -17 57 -16 29 -18 64 -18 259 0 195 2 230 18
259 9 19 17 43 17 54 0 35 105 238 170 327 99 138 189 223 320 300 120 71 194
103 320 139 65 18 101 21 270 21 170 0 204 -2 265 -21 230 -69 386 -157 515
-289 134 -137 244 -319 304 -502 19 -59 26 -107 30 -197 5 -97 9 -126 27 -155
20 -34 24 -36 71 -36 43 0 53 4 79 33 l31 32 -7 105 c-6 112 -37 270 -65 335
-52 124 -66 152 -82 177 -10 14 -18 29 -18 32 0 25 -165 244 -251 334 -96 99
-298 222 -469 284 -169 61 -456 81 -670 48z"></path>
<path d="M3541 6200 c-40 -5 -88 -15 -105 -23 -17 -8 -51 -23 -76 -34 -174
-71 -324 -234 -418 -453 -26 -60 -43 -199 -33 -271 5 -39 9 -44 41 -52 19 -5
39 -12 44 -17 4 -5 26 0 46 11 33 17 39 26 45 62 29 190 56 263 139 373 83
111 189 177 331 206 110 22 124 22 233 2 111 -20 196 -62 280 -140 107 -98
194 -268 171 -332 -5 -13 -37 -35 -83 -57 -83 -40 -128 -84 -177 -175 -56
-103 -61 -267 -13 -363 74 -145 161 -213 309 -241 86 -16 93 -16 176 2 123 28
192 75 264 183 75 112 87 252 25 297 -38 28 -66 28 -105 -3 -25 -19 -34 -34
-40 -71 -21 -143 -108 -224 -240 -224 -108 0 -178 49 -215 151 -25 67 -25 85
0 153 32 84 84 123 210 160 95 27 95 27 94 158 0 93 -5 123 -23 168 -13 30
-27 66 -33 80 -20 51 -120 191 -178 249 -106 106 -265 182 -415 200 -99 12
-144 12 -254 1z"></path>
<path d="M3438 5631 c-90 -35 -137 -89 -168 -190 -19 -61 -19 -67 -4 -123 19
-67 60 -123 123 -169 43 -31 47 -31 147 -31 97 0 105 1 134 26 17 14 35 26 39
26 10 0 64 86 82 130 33 84 2 199 -74 273 -76 73 -183 95 -279 58z"></path>
<path d="M2838 5057 c-15 -12 -40 -32 -56 -43 -15 -12 -40 -47 -56 -78 -25
-50 -28 -64 -25 -133 5 -101 39 -160 125 -218 58 -40 60 -40 142 -37 122 4
192 49 243 157 35 74 38 136 7 208 -25 60 -56 97 -116 138 -40 27 -49 29 -140
29 -85 -1 -100 -3 -124 -23z"></path>
<path d="M3200 4525 c-15 -18 -92 -55 -135 -64 -40 -9 -38 -33 3 -42 18 -4 41
-14 51 -23 10 -9 25 -16 35 -16 9 0 34 -8 54 -19 59 -30 161 -59 243 -70 124
-17 151 -29 165 -76 34 -114 87 -201 179 -290 74 -72 161 -117 270 -141 101
-22 169 -22 270 0 170 37 283 123 384 288 37 61 81 202 81 260 0 36 -31 87
-67 109 l-35 22 -28 -22 c-16 -11 -34 -21 -39 -21 -18 0 -31 -38 -31 -93 0
-36 -8 -73 -25 -111 -47 -106 -100 -165 -197 -217 -62 -32 -66 -33 -183 -33
-114 0 -123 2 -170 29 -82 48 -111 73 -155 137 -42 62 -62 114 -75 198 -15 95
-58 130 -162 130 -78 1 -191 22 -286 54 -88 30 -129 33 -147 11z"></path>
<path d="M2347 4513 c-112 -12 -217 -140 -217 -265 0 -136 129 -266 263 -268
45 0 139 30 174 56 113 85 139 258 55 369 -66 87 -151 120 -275 108z"></path>
<path d="M2971 2507 c-7 -9 -8 -32 -2 -68 4 -30 9 -177 10 -326 3 -310 7 -300
-78 -240 -75 54 -114 67 -195 67 -155 0 -281 -72 -345 -199 -22 -43 -61 -186
-61 -225 0 -42 41 -177 69 -229 14 -27 48 -69 76 -94 27 -24 57 -51 66 -59 9
-8 28 -14 42 -14 14 0 47 -7 73 -16 73 -25 206 2 272 54 50 40 71 38 86 -8 11
-35 11 -35 76 -38 35 -2 75 0 87 3 l23 5 0 680 c0 463 3 681 10 685 8 5 7 11
-1 21 -16 19 -192 20 -208 1z m-116 -765 c49 -25 75 -53 106 -112 51 -98 16
-256 -70 -318 -84 -61 -215 -60 -298 4 -79 60 -110 207 -64 309 29 65 55 92
116 122 41 20 61 23 110 20 33 -2 78 -14 100 -25z"></path>
<path d="M3900 2513 c0 -4 0 -316 0 -692 0 -494 4 -688 12 -698 8 -10 34 -13
100 -11 l89 3 0 700 -1 700 -100 3 c-55 1 -100 -1 -100 -5z"></path>
<path d="M591 2348 c-10 -24 -22 -59 -25 -78 -4 -19 -15 -64 -26 -100 -10 -36
-23 -87 -29 -115 -6 -27 -23 -93 -37 -145 -14 -52 -31 -125 -39 -162 -8 -37
-18 -75 -23 -85 -5 -10 -13 -38 -17 -63 -4 -25 -15 -74 -25 -110 -39 -144 -80
-306 -87 -347 l-5 -33 95 0 c66 0 98 4 106 13 6 8 19 49 29 93 15 63 24 81 43
91 27 14 231 17 264 4 14 -6 29 -35 51 -102 l30 -94 97 -3 97 -3 0 28 c0 15
-6 45 -14 68 -8 22 -22 72 -31 110 -9 39 -25 104 -35 145 -10 41 -24 98 -30
125 -6 28 -17 70 -25 95 -8 25 -26 97 -40 160 -15 63 -36 142 -46 176 -10 33
-19 71 -19 85 0 13 -8 47 -19 74 -10 28 -22 75 -26 105 -5 39 -15 63 -33 83
-23 24 -33 27 -94 27 l-68 0 -19 -42z m140 -483 c11 -55 27 -134 34 -175 7
-41 18 -88 24 -103 14 -37 14 -80 -1 -95 -14 -14 -185 -17 -207 -3 -18 11 -17
42 2 127 19 81 53 244 62 294 4 19 14 46 22 59 23 36 39 11 64 -104z"></path>
<path d="M3438 2333 c-33 -33 -38 -45 -38 -84 0 -56 11 -71 76 -103 64 -32 65
-32 120 0 54 32 64 49 64 108 0 36 -6 52 -28 77 -24 27 -36 32 -92 36 -65 5
-65 5 -102 -34z"></path>
<path d="M6379 2353 c0 -4 0 -92 1 -195 1 -223 -2 -233 -66 -224 -40 5 -45 3
-52 -17 -4 -12 -6 -52 -4 -88 l4 -66 42 4 c75 9 76 5 76 -246 0 -203 2 -221
23 -272 34 -84 64 -115 131 -139 33 -11 78 -20 100 -20 64 0 175 35 202 65 13
14 24 28 24 30 0 2 -12 16 -28 32 -15 15 -34 39 -43 53 l-16 24 -54 -18 c-51
-18 -57 -18 -87 -2 -17 9 -37 26 -43 38 -8 15 -14 95 -17 219 -5 192 -4 197
17 218 20 20 32 22 107 20 46 -1 88 1 91 5 12 12 15 123 4 144 -11 20 -17 21
-91 15 -65 -5 -84 -3 -105 11 l-27 18 4 196 3 197 -97 3 c-54 1 -98 -1 -99 -5z"></path>
<path d="M1323 1927 c-4 -6 -6 -137 -4 -290 3 -306 9 -346 62 -424 16 -23 44
-52 61 -65 39 -27 131 -58 173 -57 59 1 161 34 202 67 45 36 72 41 74 15 4
-63 -4 -58 99 -58 l95 0 0 410 0 410 -95 0 -95 0 3 -234 c3 -274 -4 -314 -65
-373 -46 -45 -109 -61 -191 -47 -62 9 -73 17 -104 68 -22 35 -23 47 -28 311
l-5 275 -88 1 c-54 1 -90 -3 -94 -9z"></path>
<path d="M3449 1912 c-13 -34 -12 -759 1 -783 9 -16 22 -19 85 -19 40 0 79 2
87 5 18 7 18 789 -1 808 -7 7 -41 12 -88 12 -70 0 -76 -2 -84 -23z"></path>
<path d="M4640 1925 c-19 -7 -44 -14 -54 -14 -33 -2 -141 -79 -174 -125 -18
-25 -46 -75 -62 -111 -26 -59 -30 -78 -30 -161 0 -87 3 -100 35 -167 18 -40
47 -88 64 -107 42 -52 146 -120 181 -120 16 0 64 -8 106 -17 72 -16 82 -16
158 0 44 10 91 17 103 17 12 0 56 23 97 50 l76 50 -55 55 c-30 30 -59 55 -65
55 -6 0 -32 -11 -58 -25 -26 -14 -55 -25 -65 -25 -10 0 -41 -7 -68 -16 -46
-15 -55 -15 -116 0 -82 20 -128 48 -159 97 -20 32 -32 82 -21 91 1 1 146 5
322 8 l320 5 3 56 c2 38 -4 77 -18 118 -11 33 -20 65 -20 71 0 43 -164 200
-208 200 -11 0 -39 7 -62 15 -52 18 -182 18 -230 0z m236 -171 c47 -27 94 -94
94 -133 0 -14 -9 -25 -24 -31 -27 -10 -375 -14 -400 -4 -25 10 -20 62 10 102
15 19 47 47 72 63 41 26 55 29 125 29 67 0 85 -4 123 -26z"></path>
<path d="M5670 1924 c-25 -7 -53 -14 -63 -14 -11 0 -32 -10 -48 -22 -111 -85
-145 -129 -185 -238 -55 -154 -8 -332 118 -445 62 -56 103 -77 178 -92 122
-24 144 -25 206 -9 34 9 74 16 89 16 17 0 45 15 74 38 25 21 54 42 64 45 28
11 20 33 -30 76 -77 65 -89 69 -121 38 -30 -28 -143 -60 -183 -50 -82 18 -103
27 -134 54 -53 47 -78 110 -78 199 -1 62 4 84 25 125 31 60 49 77 108 104 75
34 164 24 261 -31 l35 -20 38 24 c21 13 52 35 69 50 l32 27 -29 30 c-17 17
-34 31 -39 31 -6 0 -25 11 -43 25 -18 14 -41 25 -52 25 -11 0 -39 7 -62 15
-53 19 -170 18 -230 -1z"></path>
<path d="M1636 429 c-19 -16 -38 -39 -41 -49 -10 -31 26 -79 83 -111 60 -35
80 -62 61 -86 -15 -17 -82 -11 -107 10 -11 9 -17 7 -28 -8 -25 -33 -14 -45 57
-64 86 -24 174 27 162 92 -5 27 -64 87 -86 87 -14 1 -67 45 -67 56 0 4 7 15
16 25 14 16 18 16 54 2 45 -18 70 -12 70 16 0 26 -59 61 -103 61 -26 0 -46 -9
-71 -31z"></path>
<path d="M1887 453 c-4 -3 -7 -82 -7 -173 0 -132 3 -170 14 -179 11 -10 17 -6
30 19 11 23 15 68 17 175 0 79 -2 148 -6 154 -7 12 -38 15 -48 4z"></path>
<path d="M2007 453 c-7 -13 -1 -328 7 -341 11 -19 173 -8 197 14 31 28 17 39
-57 44 -63 5 -70 7 -82 33 -8 16 -11 36 -7 45 12 29 15 160 5 187 -7 17 -17
25 -34 25 -14 0 -27 -3 -29 -7z"></path>
<path d="M2289 453 c-5 -46 5 -330 12 -338 5 -5 48 -9 95 -9 72 0 88 3 106 21
32 32 15 43 -66 43 -85 0 -107 14 -88 55 10 21 19 25 51 25 22 0 43 5 46 11
10 15 -25 49 -51 49 -25 0 -54 24 -54 45 0 27 47 48 94 42 47 -7 76 11 76 46
0 15 -14 17 -110 17 -60 0 -110 -3 -111 -7z"></path>
<path d="M2578 453 c-2 -5 -3 -81 -3 -170 0 -166 6 -193 39 -180 13 5 16 24
16 96 0 49 4 93 10 96 16 10 55 -22 125 -105 62 -74 86 -92 99 -72 2 4 6 82 7
173 l2 164 -28 0 -29 0 0 -85 c-1 -80 -2 -85 -23 -88 -12 -2 -30 5 -40 15 -32
34 -118 134 -126 149 -8 15 -44 19 -49 7z"></path>
<path d="M2925 449 c-11 -16 25 -49 55 -49 45 0 50 -14 50 -152 0 -116 2 -128
19 -138 11 -5 22 -10 25 -10 13 0 37 63 30 78 -4 10 -9 51 -11 93 -3 66 0 80
18 103 16 20 28 27 46 23 16 -3 27 2 34 15 23 43 8 48 -130 48 -81 0 -132 -4
-136 -11z"></path>
<path d="M3257 454 c-4 -4 -7 -78 -7 -164 0 -184 1 -186 86 -183 30 1 56 -2
59 -6 7 -13 76 14 87 33 15 28 -1 36 -70 36 -37 0 -73 4 -81 9 -11 7 -15 39
-15 143 l-1 133 -25 3 c-14 2 -29 0 -33 -4z"></path>
<path d="M3505 450 c-4 -6 9 -31 29 -55 20 -24 36 -48 36 -53 0 -5 9 -17 20
-27 24 -22 54 -109 46 -138 -7 -29 31 -94 46 -79 5 5 11 44 12 85 1 58 5 80
20 96 20 22 36 47 58 91 6 14 23 34 37 46 30 26 21 44 -24 44 -29 0 -36 -5
-54 -42 -48 -97 -67 -99 -124 -15 -33 46 -45 57 -68 57 -15 0 -31 -5 -34 -10z"></path>
<path d="M4090 445 c-7 -8 -20 -15 -30 -15 -9 0 -31 -18 -49 -40 -28 -36 -33
-48 -33 -103 -1 -55 3 -67 31 -108 28 -40 39 -47 90 -58 49 -11 65 -10 114 4
33 9 57 22 57 30 0 44 -29 58 -66 30 -25 -19 -84 -19 -112 1 -12 8 -31 33 -43
56 l-20 40 23 46 c28 56 58 67 136 51 61 -12 82 -7 82 20 0 43 -150 82 -180
46z"></path>
<path d="M4338 453 c-3 -4 -4 -43 -3 -86 1 -43 -2 -80 -7 -83 -4 -3 -5 -10 -1
-17 3 -6 8 -35 9 -64 4 -80 10 -93 47 -94 143 -7 181 2 174 41 -2 11 -21 16
-77 20 l-75 5 -5 140 -5 140 -27 3 c-14 2 -28 0 -30 -5z"></path>
<path d="M4609 453 c-5 -34 4 -330 10 -336 10 -10 140 -16 188 -8 32 5 38 10
38 31 0 24 -3 25 -60 28 -98 4 -107 8 -103 45 3 29 7 32 43 37 35 4 40 8 40
30 0 21 -5 25 -34 27 -36 1 -51 15 -51 49 0 33 20 43 88 42 67 -1 86 8 80 38
-3 17 -15 19 -121 22 -64 1 -117 -1 -118 -5z"></path>
<path d="M5279 448 c-11 -11 -13 -40 -9 -163 l5 -149 27 -15 c33 -19 39 -13
42 39 2 39 16 59 42 60 16 0 37 -21 68 -67 28 -42 57 -60 76 -48 13 8 3 42
-21 74 -20 25 -25 66 -10 76 16 9 41 66 41 92 0 27 -38 83 -56 83 -6 0 -17 7
-24 15 -16 19 -159 21 -181 3z m156 -62 c29 -12 35 -20 35 -44 0 -35 -17 -51
-62 -59 -59 -9 -92 54 -51 99 20 22 33 22 78 4z"></path>
<path d="M5036 428 c-8 -13 -18 -35 -21 -50 -4 -15 -13 -32 -21 -39 -8 -6 -14
-16 -14 -22 0 -15 -50 -118 -72 -148 -21 -28 -21 -70 0 -77 7 -2 30 14 51 37
36 39 40 41 99 41 57 0 64 -3 97 -36 20 -19 41 -34 48 -31 18 5 21 56 4 75
-17 21 -67 126 -67 143 0 7 -9 22 -19 33 -11 12 -23 37 -28 56 -11 42 -36 50
-57 18z m62 -176 c-5 -24 -35 -39 -55 -26 -27 17 -27 40 -1 64 l23 21 18 -22
c10 -12 17 -29 15 -37z"></path>
</g>
</svg>